<svg width="420" height="560" viewBox="0 0 420 560" fill="none" xmlns="http://www.w3.org/2000/svg">
<g clip-path="url(#clip0_2_82)">
<path d="M420 0H0V560H420V0Z" fill="#2D6DA9"/>
<path d="M30.376 26.008H30.304L29.08 28.456L25.816 34.384L22.624 28.48L21.352 25.84H21.28V37H17.848V20.248H21.712L25.816 28.096H25.864L29.92 20.248H33.808V37H30.376V26.008ZM36.8641 37V34.096H39.0241V23.152H36.8641V20.248H44.8321V23.152H42.6721V34.096H44.8321V37H36.8641ZM61.7914 37H57.5674L53.9434 30.832H53.8714L50.3434 37H46.4074L51.7834 28.336L46.6714 20.248H50.9194L54.1834 25.912H54.2554L57.5674 20.248H61.5034L56.3434 28.408L61.7914 37Z" fill="#F0F5FB"/>
<path d="M193 44H19C17.3431 44 16 45.3431 16 47V59C16 60.6569 17.3431 62 19 62H193C194.657 62 196 60.6569 196 59V47C196 45.3431 194.657 44 193 44Z" fill="#1F3750" stroke="#111111" stroke-width="2"/>
<path d="M190.151 46H22.8493C20.1711 46 18 46.8954 18 48V58C18 59.1046 20.1711 60 22.8493 60H190.151C192.829 60 195 59.1046 195 58V48C195 46.8954 192.829 46 190.151 46Z" fill="#F9F034"/>
<path d="M402 21H312C309.239 21 307 23.2386 307 26V60C307 62.7614 309.239 65 312 65H402C404.761 65 407 62.7614 407 60V26C407 23.2386 404.761 21 402 21Z" stroke="#F0F5FB" stroke-width="2"/>
<path d="M398 18H310C306.686 18 304 20.6863 304 24V56C304 59.3137 306.686 62 310 62H398C401.314 62 404 59.3137 404 56V24C404 20.6863 401.314 18 398 18Z" fill="#2D6DA9" stroke="black" stroke-width="4"/>
<path d="M319.54 48V34.04H329.04V36.74H322.58V39.6H328.12V42.28H322.58V45.3H329.04V48H319.54ZM331.688 48V34.04H340.948V36.74H334.728V39.6H340.028V42.28H334.728V48H331.688ZM343.388 48V34.04H352.648V36.74H346.428V39.6H351.728V42.28H346.428V48H343.388ZM355.087 48V34.04H364.587V36.74H358.127V39.6H363.667V42.28H358.127V45.3H364.587V48H355.087ZM372.875 48.24C371.929 48.24 371.075 48.0933 370.315 47.8C369.555 47.4933 368.909 47.0467 368.375 46.46C367.842 45.86 367.429 45.12 367.135 44.24C366.842 43.3467 366.695 42.3067 366.695 41.12C366.695 39.9467 366.842 38.9067 367.135 38C367.429 37.08 367.842 36.3133 368.375 35.7C368.909 35.0733 369.555 34.6 370.315 34.28C371.075 33.96 371.929 33.8 372.875 33.8C374.169 33.8 375.235 34.0667 376.075 34.6C376.915 35.12 377.589 35.9467 378.095 37.08L375.475 38.44C375.289 37.8533 374.995 37.3867 374.595 37.04C374.209 36.68 373.635 36.5 372.875 36.5C371.982 36.5 371.262 36.7933 370.715 37.38C370.182 37.9533 369.915 38.7933 369.915 39.9V42.14C369.915 43.2467 370.182 44.0933 370.715 44.68C371.262 45.2533 371.982 45.54 372.875 45.54C373.622 45.54 374.215 45.34 374.655 44.94C375.109 44.5267 375.442 44.0333 375.655 43.46L378.135 44.9C377.615 45.9667 376.929 46.7933 376.075 47.38C375.235 47.9533 374.169 48.24 372.875 48.24ZM386.083 36.74V48H383.043V36.74H379.263V34.04H389.863V36.74H386.083Z" fill="#F9F034"/>
<path d="M398 112H22C18.6863 112 16 114.686 16 118V466C16 469.314 18.6863 472 22 472H398C401.314 472 404 469.314 404 466V118C404 114.686 401.314 112 398 112Z" stroke="#F0F5FB" stroke-width="3"/>
<path d="M401 115H19V469H401V115Z" fill="black"/>
<path d="M221.706 118H200.294C198.475 118 197 118.497 197 119.111V121.889C197 122.503 198.475 123 200.294 123H221.706C223.525 123 225 122.503 225 121.889V119.111C225 118.497 223.525 118 221.706 118Z" fill="#C3FF00" stroke="#59B850" stroke-width="3"/>
<path d="M26 292H394" stroke="#59B850" stroke-width="4"/>
<path d="M195 285H183V295H195V285Z" fill="#8C8C8C"/>
<path d="M235 282H223V295H235V282Z" fill="#8C8C8C"/>
<path d="M235 282H220V292H235V282Z" fill="#F9F034" stroke="#111111" stroke-width="2"/>
<path d="M255 285H243V295H255V285Z" fill="#8C8C8C"/>
<path d="M252 282H240V292H252V282Z" fill="#F9F034" stroke="#111111" stroke-width="2"/>
<path d="M275 277H263V295H275V277Z" fill="#8C8C8C"/>
<path d="M272 274H260V292H272V274Z" fill="#F9F034" stroke="#111111" stroke-width="2"/>
<path d="M295 268H283V295H295V268Z" fill="#8C8C8C"/>
<path d="M292 265H280V292H292V265Z" fill="#F9F034" stroke="#111111" stroke-width="2"/>
<path d="M315 281H303V295H315V281Z" fill="#8C8C8C"/>
<path d="M312 278H300V292H312V278Z" fill="#F9F034" stroke="#111111" stroke-width="2"/>
<path d="M335 283H323V295H335V283Z" fill="#8C8C8C"/>
<path d="M332 280H320V292H332V280Z" fill="#F9F034" stroke="#111111" stroke-width="2"/>
<path d="M355 269H343V295H355V269Z" fill="#8C8C8C"/>
<path d="M352 266H340V292H352V266Z" fill="#F9F034" stroke="#111111" stroke-width="2"/>
<path d="M375 274H363V295H375V274Z" fill="#8C8C8C"/>
<path d="M372 271H360V292H372V271Z" fill="#F9F034" stroke="#111111" stroke-width="2"/>
<path d="M395 285H383V295H395V285Z" fill="#8C8C8C"/>
<path d="M392 282H380V292H392V282Z" fill="#F9F034" stroke="#111111" stroke-width="2"/>
<path d="M20.96 520.24C19.1333 520.24 17.7 519.627 16.66 518.4C15.62 517.16 15.1 515.367 15.1 513.02C15.1 511.847 15.2333 510.813 15.5 509.92C15.7667 509.027 16.1533 508.273 16.66 507.66C17.1667 507.047 17.78 506.587 18.5 506.28C19.2333 505.96 20.0533 505.8 20.96 505.8C22.1733 505.8 23.1867 506.067 24 506.6C24.8267 507.133 25.4733 507.92 25.94 508.96L24.04 510C23.8 509.333 23.4267 508.807 22.92 508.42C22.4267 508.02 21.7733 507.82 20.96 507.82C19.88 507.82 19.0333 508.187 18.42 508.92C17.8067 509.653 17.5 510.667 17.5 511.96V514.08C17.5 515.373 17.8067 516.387 18.42 517.12C19.0333 517.853 19.88 518.22 20.96 518.22C21.8 518.22 22.48 518.007 23 517.58C23.5333 517.14 23.9267 516.58 24.18 515.9L26 517C25.5333 518.013 24.88 518.807 24.04 519.38C23.2 519.953 22.1733 520.24 20.96 520.24ZM36.9758 513.92H30.6558V520H28.3958V506.04H30.6558V511.92H36.9758V506.04H39.2358V520H36.9758V513.92ZM51.3931 520L50.1331 516.22H44.9131L43.6931 520H41.3931L46.1531 506.04H48.9931L53.7531 520H51.3931ZM47.5731 508.12H47.4731L45.4531 514.28H49.5731L47.5731 508.12ZM58.1753 520H55.9153V506.04H61.9353C63.1886 506.04 64.1753 506.42 64.8953 507.18C65.6153 507.927 65.9753 508.947 65.9753 510.24C65.9753 511.24 65.742 512.073 65.2753 512.74C64.822 513.393 64.1486 513.853 63.2553 514.12L66.2753 520H63.7553L60.9553 514.36H58.1753V520ZM61.7753 512.46C62.3486 512.46 62.7953 512.313 63.1153 512.02C63.4353 511.713 63.5953 511.28 63.5953 510.72V509.76C63.5953 509.2 63.4353 508.773 63.1153 508.48C62.7953 508.173 62.3486 508.02 61.7753 508.02H58.1753V512.46H61.7753ZM77.7408 520L76.4808 516.22H71.2608L70.0408 520H67.7408L72.5008 506.04H75.3408L80.1008 520H77.7408ZM73.9208 508.12H73.8208L71.8008 514.28H75.9208L73.9208 508.12ZM87.0733 520.24C85.2466 520.24 83.8133 519.627 82.7733 518.4C81.7333 517.16 81.2133 515.367 81.2133 513.02C81.2133 511.847 81.3466 510.813 81.6133 509.92C81.8799 509.027 82.2666 508.273 82.7733 507.66C83.2799 507.047 83.8933 506.587 84.6133 506.28C85.3466 505.96 86.1666 505.8 87.0733 505.8C88.2866 505.8 89.2999 506.067 90.1133 506.6C90.9399 507.133 91.5866 507.92 92.0533 508.96L90.1533 510C89.9133 509.333 89.5399 508.807 89.0333 508.42C88.5399 508.02 87.8866 507.82 87.0733 507.82C85.9933 507.82 85.1466 508.187 84.5333 508.92C83.9199 509.653 83.6133 510.667 83.6133 511.96V514.08C83.6133 515.373 83.9199 516.387 84.5333 517.12C85.1466 517.853 85.9933 518.22 87.0733 518.22C87.9133 518.22 88.5933 518.007 89.1133 517.58C89.6466 517.14 90.0399 516.58 90.2933 515.9L92.1133 517C91.6466 518.013 90.9933 518.807 90.1533 519.38C89.3133 519.953 88.2866 520.24 87.0733 520.24ZM99.6891 508.04V520H97.4291V508.04H93.2691V506.04H103.849V508.04H99.6891ZM106.052 520V506.04H114.992V508.04H108.312V511.92H114.372V513.92H108.312V518H114.992V520H106.052ZM120.168 520H117.908V506.04H123.928C125.181 506.04 126.168 506.42 126.888 507.18C127.608 507.927 127.968 508.947 127.968 510.24C127.968 511.24 127.734 512.073 127.268 512.74C126.814 513.393 126.141 513.853 125.248 514.12L128.268 520H125.748L122.948 514.36H120.168V520ZM123.768 512.46C124.341 512.46 124.788 512.313 125.108 512.02C125.428 511.713 125.588 511.28 125.588 510.72V509.76C125.588 509.2 125.428 508.773 125.108 508.48C124.788 508.173 124.341 508.02 123.768 508.02H120.168V512.46H123.768Z" fill="#F0F5FB"/>
<path d="M398 486H146C142.686 486 140 490.298 140 495.6V524.4C140 529.702 142.686 534 146 534H398C401.314 534 404 529.702 404 524.4V495.6C404 490.298 401.314 486 398 486Z" stroke="black" stroke-width="4"/>
<path d="M396.091 488H147.909C144.646 488 142 492.298 142 497.6V526.4C142 531.702 144.646 536 147.909 536H396.091C399.354 536 402 531.702 402 526.4V497.6C402 492.298 399.354 488 396.091 488Z" fill="#2C4C70" stroke="#F0F5FB" stroke-width="2"/>
<path d="M163.077 486H140.923C137.1 486 134 491.596 134 498.5V523.5C134 530.404 137.1 536 140.923 536H163.077C166.9 536 170 530.404 170 523.5V498.5C170 491.596 166.9 486 163.077 486Z" fill="#F9F034" stroke="black" stroke-width="3"/>
<path d="M55 282H43V292H55V282Z" fill="#F9F034" stroke="#111111" stroke-width="2"/>
<path d="M78 277H66V295H78V277Z" fill="#8C8C8C"/>
<path d="M75 274H63V292H75V274Z" fill="#F9F034" stroke="#111111" stroke-width="2"/>
<path d="M98 268H86V295H98V268Z" fill="#8C8C8C"/>
<path d="M95 265H83V292H95V265Z" fill="#F9F034" stroke="#111111" stroke-width="2"/>
<path d="M118 281H106V295H118V281Z" fill="#8C8C8C"/>
<path d="M115 278H103V292H115V278Z" fill="#F9F034" stroke="#111111" stroke-width="2"/>
<path d="M135 280H123V292H135V280Z" fill="#F9F034" stroke="#111111" stroke-width="2"/>
<path d="M158 269H146V295H158V269Z" fill="#8C8C8C"/>
<path d="M155 266H143V292H155V266Z" fill="#F9F034" stroke="#111111" stroke-width="2"/>
<path d="M178 274H166V295H178V274Z" fill="#8C8C8C"/>
<path d="M175 271H163V292H175V271Z" fill="#F9F034" stroke="#111111" stroke-width="2"/>
<path d="M195 282H183V292H195V282Z" fill="#F9F034" stroke="#111111" stroke-width="2"/>
</g>
<defs>
<clipPath id="clip0_2_82">
<rect width="420" height="560" fill="white"/>
</clipPath>
</defs>
</svg>
