<svg width="428" height="568" viewBox="0 0 428 568" fill="none" xmlns="http://www.w3.org/2000/svg">
<g clip-path="url(#clip0_1_2)" filter="url(#filter0_d_1_2)">
<path d="M424 0H4V560H424V0Z" fill="#2D6DA9"/>
<path d="M34.376 26.008H34.304L33.08 28.456L29.816 34.384L26.624 28.48L25.352 25.84H25.28V37H21.848V20.248H25.712L29.816 28.096H29.864L33.92 20.248H37.808V37H34.376V26.008ZM40.8641 37V34.096H43.0241V23.152H40.8641V20.248H48.8321V23.152H46.6721V34.096H48.8321V37H40.8641ZM65.7914 37H61.5674L57.9434 30.832H57.8714L54.3434 37H50.4074L55.7834 28.336L50.6714 20.248H54.9194L58.1834 25.912H58.2554L61.5674 20.248H65.5034L60.3434 28.408L65.7914 37Z" fill="#F0F5FB"/>
<path d="M197 44H23C21.3431 44 20 45.3431 20 47V59C20 60.6569 21.3431 62 23 62H197C198.657 62 200 60.6569 200 59V47C200 45.3431 198.657 44 197 44Z" fill="#1F3750" stroke="#111111" stroke-width="2"/>
<path d="M194.151 46H26.8493C24.1711 46 22 46.8954 22 48V58C22 59.1046 24.1711 60 26.8493 60H194.151C196.829 60 199 59.1046 199 58V48C199 46.8954 196.829 46 194.151 46Z" fill="#F9F034"/>
<path d="M406 21H316C313.239 21 311 23.2386 311 26V60C311 62.7614 313.239 65 316 65H406C408.761 65 411 62.7614 411 60V26C411 23.2386 408.761 21 406 21Z" stroke="#F0F5FB" stroke-width="2"/>
<path d="M402 18H314C310.686 18 308 20.6863 308 24V56C308 59.3137 310.686 62 314 62H402C405.314 62 408 59.3137 408 56V24C408 20.6863 405.314 18 402 18Z" fill="#B02020" stroke="black" stroke-width="4"/>
<path d="M323.54 48V34.04H333.04V36.74H326.58V39.6H332.12V42.28H326.58V45.3H333.04V48H323.54ZM335.688 48V34.04H344.948V36.74H338.728V39.6H344.028V42.28H338.728V48H335.688ZM347.388 48V34.04H356.648V36.74H350.428V39.6H355.728V42.28H350.428V48H347.388ZM359.087 48V34.04H368.587V36.74H362.127V39.6H367.667V42.28H362.127V45.3H368.587V48H359.087ZM376.875 48.24C375.929 48.24 375.075 48.0933 374.315 47.8C373.555 47.4933 372.909 47.0467 372.375 46.46C371.842 45.86 371.429 45.12 371.135 44.24C370.842 43.3467 370.695 42.3067 370.695 41.12C370.695 39.9467 370.842 38.9067 371.135 38C371.429 37.08 371.842 36.3133 372.375 35.7C372.909 35.0733 373.555 34.6 374.315 34.28C375.075 33.96 375.929 33.8 376.875 33.8C378.169 33.8 379.235 34.0667 380.075 34.6C380.915 35.12 381.589 35.9467 382.095 37.08L379.475 38.44C379.289 37.8533 378.995 37.3867 378.595 37.04C378.209 36.68 377.635 36.5 376.875 36.5C375.982 36.5 375.262 36.7933 374.715 37.38C374.182 37.9533 373.915 38.7933 373.915 39.9V42.14C373.915 43.2467 374.182 44.0933 374.715 44.68C375.262 45.2533 375.982 45.54 376.875 45.54C377.622 45.54 378.215 45.34 378.655 44.94C379.109 44.5267 379.442 44.0333 379.655 43.46L382.135 44.9C381.615 45.9667 380.929 46.7933 380.075 47.38C379.235 47.9533 378.169 48.24 376.875 48.24ZM390.083 36.74V48H387.043V36.74H383.263V34.04H393.863V36.74H390.083Z" fill="#F9F034"/>
<path d="M402 112H26C22.6863 112 20 114.686 20 118V466C20 469.314 22.6863 472 26 472H402C405.314 472 408 469.314 408 466V118C408 114.686 405.314 112 402 112Z" stroke="#F0F5FB" stroke-width="3"/>
<path d="M405 115H23V469H405V115Z" fill="black"/>
<path d="M225.706 118H204.294C202.475 118 201 118.497 201 119.111V121.889C201 122.503 202.475 123 204.294 123H225.706C227.525 123 229 122.503 229 121.889V119.111C229 118.497 227.525 118 225.706 118Z" fill="#C3FF00" stroke="#59B850" stroke-width="3"/>
<path d="M30 292H398" stroke="#59B850" stroke-width="4"/>
<path d="M199 285H187V295H199V285Z" fill="#8C8C8C"/>
<path d="M239 282H227V295H239V282Z" fill="#8C8C8C"/>
<path d="M239 282H224V292H239V282Z" fill="#F9F034" stroke="#111111" stroke-width="2"/>
<path d="M259 285H247V295H259V285Z" fill="#8C8C8C"/>
<path d="M256 282H244V292H256V282Z" fill="#F9F034" stroke="#111111" stroke-width="2"/>
<path d="M279 277H267V295H279V277Z" fill="#8C8C8C"/>
<path d="M276 274H264V292H276V274Z" fill="#F9F034" stroke="#111111" stroke-width="2"/>
<path d="M299 268H287V295H299V268Z" fill="#8C8C8C"/>
<path d="M296 265H284V292H296V265Z" fill="#F9F034" stroke="#111111" stroke-width="2"/>
<path d="M319 281H307V295H319V281Z" fill="#8C8C8C"/>
<path d="M316 278H304V292H316V278Z" fill="#F9F034" stroke="#111111" stroke-width="2"/>
<path d="M339 283H327V295H339V283Z" fill="#8C8C8C"/>
<path d="M336 280H324V292H336V280Z" fill="#F9F034" stroke="#111111" stroke-width="2"/>
<path d="M359 269H347V295H359V269Z" fill="#8C8C8C"/>
<path d="M356 266H344V292H356V266Z" fill="#F9F034" stroke="#111111" stroke-width="2"/>
<path d="M379 274H367V295H379V274Z" fill="#8C8C8C"/>
<path d="M376 271H364V292H376V271Z" fill="#F9F034" stroke="#111111" stroke-width="2"/>
<path d="M399 285H387V295H399V285Z" fill="#8C8C8C"/>
<path d="M396 282H384V292H396V282Z" fill="#F9F034" stroke="#111111" stroke-width="2"/>
<path d="M24.96 520.24C23.1333 520.24 21.7 519.627 20.66 518.4C19.62 517.16 19.1 515.367 19.1 513.02C19.1 511.847 19.2333 510.813 19.5 509.92C19.7667 509.027 20.1533 508.273 20.66 507.66C21.1667 507.047 21.78 506.587 22.5 506.28C23.2333 505.96 24.0533 505.8 24.96 505.8C26.1733 505.8 27.1867 506.067 28 506.6C28.8267 507.133 29.4733 507.92 29.94 508.96L28.04 510C27.8 509.333 27.4267 508.807 26.92 508.42C26.4267 508.02 25.7733 507.82 24.96 507.82C23.88 507.82 23.0333 508.187 22.42 508.92C21.8067 509.653 21.5 510.667 21.5 511.96V514.08C21.5 515.373 21.8067 516.387 22.42 517.12C23.0333 517.853 23.88 518.22 24.96 518.22C25.8 518.22 26.48 518.007 27 517.58C27.5333 517.14 27.9267 516.58 28.18 515.9L30 517C29.5333 518.013 28.88 518.807 28.04 519.38C27.2 519.953 26.1733 520.24 24.96 520.24ZM40.9758 513.92H34.6558V520H32.3958V506.04H34.6558V511.92H40.9758V506.04H43.2358V520H40.9758V513.92ZM55.3931 520L54.1331 516.22H48.9131L47.6931 520H45.3931L50.1531 506.04H52.9931L57.7531 520H55.3931ZM51.5731 508.12H51.4731L49.4531 514.28H53.5731L51.5731 508.12ZM62.1753 520H59.9153V506.04H65.9353C67.1886 506.04 68.1753 506.42 68.8953 507.18C69.6153 507.927 69.9753 508.947 69.9753 510.24C69.9753 511.24 69.742 512.073 69.2753 512.74C68.822 513.393 68.1486 513.853 67.2553 514.12L70.2753 520H67.7553L64.9553 514.36H62.1753V520ZM65.7753 512.46C66.3486 512.46 66.7953 512.313 67.1153 512.02C67.4353 511.713 67.5953 511.28 67.5953 510.72V509.76C67.5953 509.2 67.4353 508.773 67.1153 508.48C66.7953 508.173 66.3486 508.02 65.7753 508.02H62.1753V512.46H65.7753ZM81.7408 520L80.4808 516.22H75.2608L74.0408 520H71.7408L76.5008 506.04H79.3408L84.1008 520H81.7408ZM77.9208 508.12H77.8208L75.8008 514.28H79.9208L77.9208 508.12ZM91.0733 520.24C89.2466 520.24 87.8133 519.627 86.7733 518.4C85.7333 517.16 85.2133 515.367 85.2133 513.02C85.2133 511.847 85.3466 510.813 85.6133 509.92C85.8799 509.027 86.2666 508.273 86.7733 507.66C87.2799 507.047 87.8933 506.587 88.6133 506.28C89.3466 505.96 90.1666 505.8 91.0733 505.8C92.2866 505.8 93.2999 506.067 94.1133 506.6C94.9399 507.133 95.5866 507.92 96.0533 508.96L94.1533 510C93.9133 509.333 93.5399 508.807 93.0333 508.42C92.5399 508.02 91.8866 507.82 91.0733 507.82C89.9933 507.82 89.1466 508.187 88.5333 508.92C87.9199 509.653 87.6133 510.667 87.6133 511.96V514.08C87.6133 515.373 87.9199 516.387 88.5333 517.12C89.1466 517.853 89.9933 518.22 91.0733 518.22C91.9133 518.22 92.5933 518.007 93.1133 517.58C93.6466 517.14 94.0399 516.58 94.2933 515.9L96.1133 517C95.6466 518.013 94.9933 518.807 94.1533 519.38C93.3133 519.953 92.2866 520.24 91.0733 520.24ZM103.689 508.04V520H101.429V508.04H97.2691V506.04H107.849V508.04H103.689ZM110.052 520V506.04H118.992V508.04H112.312V511.92H118.372V513.92H112.312V518H118.992V520H110.052ZM124.168 520H121.908V506.04H127.928C129.181 506.04 130.168 506.42 130.888 507.18C131.608 507.927 131.968 508.947 131.968 510.24C131.968 511.24 131.734 512.073 131.268 512.74C130.814 513.393 130.141 513.853 129.248 514.12L132.268 520H129.748L126.948 514.36H124.168V520ZM127.768 512.46C128.341 512.46 128.788 512.313 129.108 512.02C129.428 511.713 129.588 511.28 129.588 510.72V509.76C129.588 509.2 129.428 508.773 129.108 508.48C128.788 508.173 128.341 508.02 127.768 508.02H124.168V512.46H127.768Z" fill="#F0F5FB"/>
<path d="M402 486H150C146.686 486 144 490.298 144 495.6V524.4C144 529.702 146.686 534 150 534H402C405.314 534 408 529.702 408 524.4V495.6C408 490.298 405.314 486 402 486Z" stroke="black" stroke-width="4"/>
<path d="M400.091 488H151.909C148.646 488 146 492.298 146 497.6V526.4C146 531.702 148.646 536 151.909 536H400.091C403.354 536 406 531.702 406 526.4V497.6C406 492.298 403.354 488 400.091 488Z" fill="#2C4C70" stroke="#F0F5FB" stroke-width="2"/>
<path d="M167.077 486H144.923C141.1 486 138 491.596 138 498.5V523.5C138 530.404 141.1 536 144.923 536H167.077C170.9 536 174 530.404 174 523.5V498.5C174 491.596 170.9 486 167.077 486Z" fill="#F9F034" stroke="black" stroke-width="3"/>
<path d="M59 282H47V292H59V282Z" fill="#F9F034" stroke="#111111" stroke-width="2"/>
<path d="M82 277H70V295H82V277Z" fill="#8C8C8C"/>
<path d="M79 274H67V292H79V274Z" fill="#F9F034" stroke="#111111" stroke-width="2"/>
<path d="M102 268H90V295H102V268Z" fill="#8C8C8C"/>
<path d="M99 265H87V292H99V265Z" fill="#F9F034" stroke="#111111" stroke-width="2"/>
<path d="M122 281H110V295H122V281Z" fill="#8C8C8C"/>
<path d="M119 278H107V292H119V278Z" fill="#F9F034" stroke="#111111" stroke-width="2"/>
<path d="M139 280H127V292H139V280Z" fill="#F9F034" stroke="#111111" stroke-width="2"/>
<path d="M162 269H150V295H162V269Z" fill="#8C8C8C"/>
<path d="M159 266H147V292H159V266Z" fill="#F9F034" stroke="#111111" stroke-width="2"/>
<path d="M182 274H170V295H182V274Z" fill="#8C8C8C"/>
<path d="M179 271H167V292H179V271Z" fill="#F9F034" stroke="#111111" stroke-width="2"/>
<path d="M199 282H187V292H199V282Z" fill="#F9F034" stroke="#111111" stroke-width="2"/>
</g>
<defs>
<filter id="filter0_d_1_2" x="0" y="0" width="428" height="568" filterUnits="userSpaceOnUse" color-interpolation-filters="sRGB">
<feFlood flood-opacity="0" result="BackgroundImageFix"/>
<feColorMatrix in="SourceAlpha" type="matrix" values="0 0 0 0 0 0 0 0 0 0 0 0 0 0 0 0 0 0 127 0" result="hardAlpha"/>
<feOffset dy="4"/>
<feGaussianBlur stdDeviation="2"/>
<feComposite in2="hardAlpha" operator="out"/>
<feColorMatrix type="matrix" values="0 0 0 0 0 0 0 0 0 0 0 0 0 0 0 0 0 0 0.25 0"/>
<feBlend mode="normal" in2="BackgroundImageFix" result="effect1_dropShadow_1_2"/>
<feBlend mode="normal" in="SourceGraphic" in2="effect1_dropShadow_1_2" result="shape"/>
</filter>
<clipPath id="clip0_1_2">
<rect width="420" height="560" fill="white" transform="translate(4)"/>
</clipPath>
</defs>
</svg>
